<svg version="1.2" xmlns="http://www.w3.org/2000/svg" viewBox="0 0 150 150" width="150" height="150">
	<title>LogoSolo48h-turquesa-svg</title>
	<defs>
		<clipPath clipPathUnits="userSpaceOnUse" id="cp1">
			<path d="m4.71-0.36h140.47v131.81h-140.47z"/>
		</clipPath>
		<clipPath clipPathUnits="userSpaceOnUse" id="cp2">
			<path d="m4.71-0.36h140.47v131.81h-140.47z"/>
		</clipPath>
		<clipPath clipPathUnits="userSpaceOnUse" id="cp3">
			<path d="m4.71-0.36h140.47v131.81h-140.47z"/>
		</clipPath>
		<clipPath clipPathUnits="userSpaceOnUse" id="cp4">
			<path d="m4.71-0.36h140.47v131.81h-140.47z"/>
		</clipPath>
	</defs>
	<style>
		.s0 { fill: none;stroke: #3da3a1;stroke-linecap: round;stroke-linejoin: round;stroke-width: 4.6 } 
		.s1 { fill: #3da3a1 } 
	</style>
	<g id="Layer">
		<g id="Layer">
			<g id="Clip-Path" clip-path="url(#cp1)">
				<path id="Layer" class="s0" d="m53.5 129.1v-89.4h89.4"/>
			</g>
			<g id="Clip-Path" clip-path="url(#cp2)">
				<path id="Layer" class="s0" d="m80.8 39.3v-23.2c0-18.9 34.7-19.4 34.7 1.7v20.6"/>
			</g>
		</g>
		<path id="Layer" class="s0" d="m42.3 73.6h-25.1"/>
		<path id="Layer" class="s0" d="m42.3 95.2h-25.1"/>
		<g id="Layer">
			<g id="Clip-Path" clip-path="url(#cp3)">
				<path id="Layer" class="s0" d="m32.1 84.4h-25.1"/>
			</g>
			<g id="Clip-Path" clip-path="url(#cp4)">
				<g id="Layer">
					<path id="Layer" fill-rule="evenodd" class="s1" d="m134.2 83q0 2.2-0.7 4-0.8 1.9-2 3.3-1.3 1.4-3.1 2.2-1.8 0.8-3.9 0.8-2.1 0-3.9-0.8-1.8-0.8-3-2.2-1.3-1.4-2.1-3.3-0.7-1.8-0.7-4 0-2.1 0.7-4 0.8-1.8 2.1-3.2 1.2-1.4 3-2.2 1.8-0.8 3.9-0.8 2.1 0 3.9 0.8 1.8 0.8 3.1 2.2 1.2 1.4 2 3.2 0.7 1.9 0.7 4zm-3.7 0q0-1.9-0.8-3.4-0.8-1.6-2.1-2.5-1.3-0.9-3.1-0.9-1.8 0-3.1 0.9-1.4 0.9-2.1 2.4-0.8 1.6-0.8 3.5 0 1.9 0.8 3.5 0.7 1.5 2.1 2.4 1.3 1 3.1 1 1.8 0 3.1-1 1.3-0.9 2.1-2.4 0.8-1.6 0.8-3.5zm-25.5 6.7l0.7 0.4v-0.4c-0.4 0-0.7 0-0.7 0zm0.7 0c1.9 0 7.4 0 7.4 0q0.7 0 1.2 0.4 0.5 0.5 0.5 1.2 0 0.7-0.5 1.2-0.5 0.5-1.2 0.5h-9.3q-0.7 0-1.2-0.5-0.5-0.5-0.5-1.3v-16.4q0-0.8 0.5-1.3 0.5-0.5 1.3-0.5 0.7 0 1.2 0.5 0.6 0.5 0.6 1.3zm-6.9-6.7q0 2.2-0.7 4-0.7 1.9-2 3.3-1.3 1.4-3.1 2.2-1.8 0.8-3.9 0.8-2.1 0-3.8-0.8-1.8-0.8-3.1-2.2-1.3-1.4-2-3.3-0.7-1.8-0.7-4 0-2.1 0.7-3.9 0.7-1.9 2-3.3 1.3-1.4 3.1-2.2 1.7-0.8 3.8-0.8 2.1 0 3.9 0.8 1.8 0.8 3.1 2.2 1.3 1.4 2 3.3 0.7 1.8 0.7 3.9zm-3.7 0q0-1.9-0.7-3.4-0.8-1.6-2.2-2.5-1.3-0.9-3.1-0.9-1.7 0-3.1 0.9-1.3 0.9-2.1 2.5-0.7 1.5-0.7 3.4 0 2 0.7 3.5 0.8 1.6 2.1 2.5 1.4 0.9 3.1 0.9 1.8 0 3.1-0.9 1.4-0.9 2.2-2.5 0.7-1.5 0.7-3.5zm-25.2 10.3q-2 0-3.6-0.5-1.6-0.5-3.1-1.7-0.3-0.4-0.5-0.8-0.2-0.4-0.2-0.8 0-0.6 0.5-1.1 0.4-0.5 1.1-0.5 0.6 0 1 0.3 1.1 0.9 2.2 1.4 1 0.4 2.6 0.4 1 0 1.9-0.3 0.9-0.3 1.4-0.9 0.6-0.5 0.6-1.2 0-0.9-0.5-1.5-0.5-0.6-1.6-1-1-0.4-2.7-0.7-1.5-0.2-2.7-0.7-1.1-0.4-1.9-1.1-0.8-0.8-1.2-1.8-0.4-0.9-0.4-2.2 0-1.8 0.9-3.1 1-1.3 2.6-2 1.7-0.7 3.6-0.7 1.9 0 3.4 0.6 1.6 0.5 2.6 1.4 0.9 0.6 0.9 1.5 0 0.6-0.5 1.1-0.5 0.5-1.2 0.5-0.4 0-0.7-0.2-0.5-0.4-1.3-0.8-0.7-0.3-1.6-0.6-0.8-0.2-1.6-0.2-1.2 0-2.1 0.3-0.8 0.3-1.2 0.8-0.4 0.6-0.4 1.3 0 0.8 0.5 1.4 0.5 0.6 1.4 0.9 0.9 0.3 2.2 0.6 1.8 0.3 3 0.7 1.3 0.4 2.2 1.1 0.9 0.7 1.3 1.7 0.4 1 0.4 2.5 0 1.8-1 3.1-1 1.4-2.7 2.1-1.7 0.7-3.6 0.7z"/>
					<path id="Layer" fill-rule="evenodd" class="s1" d="m115.5 113.9q1.1 0.7 1.9 1.5 1.3 1.2 2 2.7 0.7 1.4 0.7 3 0 2.5-1.5 4.7-1.4 2.2-3.8 3.4-2.4 1.3-5.4 1.3-2.9 0-5.3-1.3-2.4-1.2-3.9-3.4-1.4-2.2-1.4-4.7 0-2.1 0.9-3.7 0.9-1.5 2.2-2.5 0.7-0.5 1.3-1-0.6-0.3-1.2-0.8-1.1-0.8-1.7-2.1-0.7-1.3-0.7-3.1 0-2.6 1.3-4.6 1.3-2.1 3.6-3.3 2.2-1.2 4.9-1.2 2.8 0 5 1.2 2.2 1.2 3.5 3.3 1.3 2 1.3 4.6 0 1.9-0.7 3.3-0.8 1.3-1.9 2-0.5 0.4-1.1 0.7zm-11.3 0.5l0.4-1.2q-0.7 0.3-1.4 0.7 0.5 0.3 1 0.5zm10.2-1l0.1 1q0.5-0.2 1-0.5-0.5-0.3-1.1-0.5zm-9.4-5.4q0 1.2 0.6 2.2 0.6 0.9 1.6 1.5 1 0.5 2.2 0.5 1.3 0 2.3-0.5 1-0.6 1.5-1.5 0.6-1 0.6-2.2 0-1.8-1.3-3-1.2-1.2-3.1-1.2-1.9 0-3.1 1.2-1.3 1.2-1.3 3zm4.4 17.5q2.2 0 3.7-1.3 1.5-1.3 1.5-3.2 0-1.4-0.7-2.4-0.6-1-1.8-1.7-1.2-0.6-2.7-0.6-1.4 0-2.6 0.6-1.2 0.7-1.9 1.7-0.6 1-0.6 2.4 0 1.9 1.5 3.2 1.5 1.3 3.6 1.3z"/>
					<path id="Layer" class="s1" d="m89.5 130.5q-1.1 0-1.9-0.8-0.8-0.7-0.8-1.9v-21.4l1 0.3-8.8 10.8-0.2-0.6h21.5q1 0 1.8 0.7 0.7 0.8 0.7 1.9 0 1-0.7 1.7-0.8 0.7-1.8 0.7h-25.3q-0.9 0-1.8-0.8-0.9-0.7-0.9-1.9 0-1 0.7-1.8l14.3-17.6q0.4-0.5 1-0.7 0.6-0.3 1.3-0.3 1.2 0 1.9 0.8 0.8 0.7 0.8 1.9v26.3q0 1.2-0.8 1.9-0.8 0.8-2 0.8z"/>
					<path id="Layer" class="s1" d="m137.2 106.7q3.3 0 5 1.4 1.7 1.4 2.3 3.8 0.7 2.3 0.7 5.2v11.6q0 1.2-0.8 2-0.8 0.8-1.9 0.8-1.2 0-2-0.8-0.8-0.8-0.8-2v-11.6q0-1.5-0.3-2.7-0.4-1.2-1.4-2-0.9-0.7-2.7-0.7-1.7 0-2.9 0.7-1.3 0.8-1.9 2-0.6 1.2-0.6 2.7v11.6q0 1.2-0.8 2-0.7 0.8-1.9 0.8-1.2 0-2-0.8-0.7-0.8-0.7-2v-28.1q0-1.2 0.7-2 0.8-0.8 2-0.8 1.2 0 1.9 0.8 0.8 0.8 0.8 2v11.3l-0.7-0.2q0.4-0.7 1.2-1.6 0.7-0.9 1.7-1.7 1.1-0.7 2.4-1.2 1.2-0.5 2.7-0.5z"/>
				</g>
			</g>
		</g>
	</g>
</svg>